# MagicaVoxel @ Ephtracy

# group
o 

# material
mtllib pHelmet.mtl
usemtl palette

# normals
vn -1 0 0
vn 1 0 0
vn 0 0 1
vn 0 0 -1
vn 0 -1 0
vn 0 1 0

# texcoords
vt 0.0136719 0.5
vt 0.0175781 0.5
vt 0.0214844 0.5

# verts
v -0.7 2 0.3
v -0.7 2 0.1
v -0.7 2.3 0.3
v -0.7 2.3 0.1
v -0.6 1.9 0.3
v -0.6 1.9 0.1
v -0.6 2 0.3
v -0.6 2 0.1
v -0.6 2.3 0.3
v -0.6 2.3 0.1
v -0.6 2.4 0.3
v -0.6 2.4 0.1
v -0.5 1.8 0.3
v -0.5 1.8 0.1
v -0.5 1.9 0.3
v -0.5 1.9 0.1
v -0.4 1.4 0.4
v -0.4 1.4 5.96046e-008
v -0.4 1.8 0.4
v -0.4 1.8 0.3
v -0.4 1.8 0.1
v -0.4 2 0.4
v -0.4 2 0.3
v -0.4 2.1 0.3
v -0.4 2.1 0.1
v -0.4 2.2 0.4
v -0.4 2.2 5.96046e-008
v -0.3 1.4 0.5
v -0.3 1.4 0.4
v -0.3 1.4 5.96046e-008
v -0.3 1.4 -0.1
v -0.3 1.7 0.5
v -0.3 1.7 0.4
v -0.3 1.8 0.5
v -0.3 1.8 0.4
v -0.3 2 0.5
v -0.3 2 0.4
v -0.3 2.1 0.5
v -0.3 2.1 0.4
v -0.3 2.2 0.5
v -0.3 2.2 0.4
v -0.3 2.2 5.96046e-008
v -0.3 2.2 -0.1
v -0.3 2.3 0.4
v -0.3 2.3 5.96046e-008
v -0.2 1.4 0.6
v -0.2 1.4 0.5
v -0.2 1.4 -0.1
v -0.2 1.4 -0.2
v -0.2 1.7 0.5
v -0.2 1.8 0.6
v -0.2 1.8 0.5
v -0.2 2 0.6
v -0.2 2 0.5
v -0.2 2.1 0.6
v -0.2 2.1 0.5
v -0.2 2.2 0.6
v -0.2 2.2 0.5
v -0.2 2.2 0.4
v -0.2 2.2 5.96046e-008
v -0.2 2.2 -0.1
v -0.2 2.2 -0.2
v -0.2 2.3 0.5
v -0.2 2.3 0.4
v -0.2 2.3 5.96046e-008
v -0.2 2.3 -0.1
v -0.2 2.4 0.4
v -0.2 2.4 5.96046e-008
v 0.1 1.4 0.6
v 0.1 1.4 0.5
v 0.1 1.8 0.6
v 0.1 1.8 0.5
v 0.2 1.4 0.5
v 0.2 1.4 0.4
v 0.2 1.4 5.96046e-008
v 0.2 1.4 -0.1
v 0.2 1.7 0.5
v 0.2 1.7 0.4
v 0.2 1.8 0.5
v 0.2 1.8 0.4
v 0.2 2 0.5
v 0.2 2 0.4
v 0.2 2.1 0.5
v 0.2 2.1 0.4
v 0.2 2.2 0.5
v 0.2 2.2 0.4
v 0.2 2.2 5.96046e-008
v 0.2 2.2 -0.1
v 0.2 2.3 0.4
v 0.2 2.3 5.96046e-008
v 0.3 1.4 0.4
v 0.3 1.4 5.96046e-008
v 0.3 1.7 0.4
v 0.3 1.8 0.4
v 0.3 1.8 0.3
v 0.3 2 0.4
v 0.3 2 0.3
v 0.3 2.1 0.4
v 0.3 2.2 0.4
v 0.3 2.2 5.96046e-008
v 0.4 2.3 0.3
v 0.4 2.3 0.1
v 0.4 2.4 0.3
v 0.4 2.4 0.1
v 0.5 2.1 0.3
v 0.5 2.1 0.1
v 0.5 2.3 0.3
v 0.5 2.3 0.1
v -0.5 2.1 0.3
v -0.5 2.1 0.1
v -0.5 2.3 0.3
v -0.5 2.3 0.1
v -0.4 2.3 0.3
v -0.4 2.3 0.1
v -0.4 2.4 0.3
v -0.4 2.4 0.1
v -0.3 1.4 0.4
v -0.3 1.4 5.96046e-008
v -0.3 1.7 0.4
v -0.3 1.8 0.4
v -0.3 1.8 0.3
v -0.3 2 0.4
v -0.3 2 0.3
v -0.3 2.1 0.4
v -0.3 2.2 0.4
v -0.3 2.2 5.96046e-008
v -0.2 1.4 0.5
v -0.2 1.4 0.4
v -0.2 1.4 5.96046e-008
v -0.2 1.4 -0.1
v -0.2 1.7 0.5
v -0.2 1.7 0.4
v -0.2 1.8 0.5
v -0.2 1.8 0.4
v -0.2 2 0.5
v -0.2 2 0.4
v -0.2 2.1 0.5
v -0.2 2.1 0.4
v -0.2 2.2 0.5
v -0.2 2.2 0.4
v -0.2 2.2 5.96046e-008
v -0.2 2.2 -0.1
v -0.2 2.3 0.4
v -0.2 2.3 5.96046e-008
v -0.1 1.4 0.6
v -0.1 1.4 0.5
v -0.1 1.8 0.6
v -0.1 1.8 0.5
v 0.2 1.4 0.6
v 0.2 1.4 0.5
v 0.2 1.4 -0.1
v 0.2 1.4 -0.2
v 0.2 1.7 0.5
v 0.2 1.8 0.6
v 0.2 1.8 0.5
v 0.2 2 0.6
v 0.2 2 0.5
v 0.2 2.1 0.6
v 0.2 2.1 0.5
v 0.2 2.2 0.6
v 0.2 2.2 0.5
v 0.2 2.2 0.4
v 0.2 2.2 5.96046e-008
v 0.2 2.2 -0.1
v 0.2 2.2 -0.2
v 0.2 2.3 0.5
v 0.2 2.3 0.4
v 0.2 2.3 5.96046e-008
v 0.2 2.3 -0.1
v 0.2 2.4 0.4
v 0.2 2.4 5.96046e-008
v 0.3 1.4 0.5
v 0.3 1.4 0.4
v 0.3 1.4 5.96046e-008
v 0.3 1.4 -0.1
v 0.3 1.7 0.5
v 0.3 1.7 0.4
v 0.3 1.8 0.5
v 0.3 1.8 0.4
v 0.3 2 0.5
v 0.3 2 0.4
v 0.3 2.1 0.5
v 0.3 2.1 0.4
v 0.3 2.2 0.5
v 0.3 2.2 0.4
v 0.3 2.2 5.96046e-008
v 0.3 2.2 -0.1
v 0.3 2.3 0.4
v 0.3 2.3 5.96046e-008
v 0.4 1.4 0.4
v 0.4 1.4 5.96046e-008
v 0.4 1.8 0.4
v 0.4 1.8 0.3
v 0.4 1.8 0.1
v 0.4 2 0.4
v 0.4 2 0.3
v 0.4 2.1 0.3
v 0.4 2.1 0.1
v 0.4 2.2 0.4
v 0.4 2.2 5.96046e-008
v 0.5 1.8 0.3
v 0.5 1.8 0.1
v 0.5 1.9 0.3
v 0.5 1.9 0.1
v 0.6 1.9 0.3
v 0.6 1.9 0.1
v 0.6 2 0.3
v 0.6 2 0.1
v 0.6 2.3 0.3
v 0.6 2.3 0.1
v 0.6 2.4 0.3
v 0.6 2.4 0.1
v 0.7 2 0.3
v 0.7 2 0.1
v 0.7 2.3 0.3
v 0.7 2.3 0.1
v -0.2 1.4 0.6
v -0.2 1.8 0.6
v -0.2 2 0.6
v -0.2 2.1 0.6
v -0.2 2.2 0.6
v -0.1 1.4 0.6
v -0.1 1.8 0.6
v 0.1 1.4 0.6
v 0.1 1.8 0.6
v 0.2 1.4 0.6
v 0.2 1.8 0.6
v 0.2 2 0.6
v 0.2 2.1 0.6
v 0.2 2.2 0.6
v -0.3 1.4 0.5
v -0.3 1.7 0.5
v -0.3 1.8 0.5
v -0.3 2 0.5
v -0.3 2.1 0.5
v -0.3 2.2 0.5
v -0.2 1.4 0.5
v -0.2 1.7 0.5
v -0.2 1.8 0.5
v -0.2 2 0.5
v -0.2 2.1 0.5
v -0.2 2.2 0.5
v -0.2 2.3 0.5
v 0.2 1.4 0.5
v 0.2 1.7 0.5
v 0.2 1.8 0.5
v 0.2 2 0.5
v 0.2 2.1 0.5
v 0.2 2.2 0.5
v 0.2 2.3 0.5
v 0.3 1.4 0.5
v 0.3 1.7 0.5
v 0.3 1.8 0.5
v 0.3 2 0.5
v 0.3 2.1 0.5
v 0.3 2.2 0.5
v -0.4 1.4 0.4
v -0.4 1.8 0.4
v -0.4 2 0.4
v -0.4 2.2 0.4
v -0.3 1.4 0.4
v -0.3 1.7 0.4
v -0.3 1.8 0.4
v -0.3 2 0.4
v -0.3 2.1 0.4
v -0.3 2.2 0.4
v -0.3 2.3 0.4
v -0.2 2.2 0.4
v -0.2 2.3 0.4
v -0.2 2.4 0.4
v 0.2 2.2 0.4
v 0.2 2.3 0.4
v 0.2 2.4 0.4
v 0.3 1.4 0.4
v 0.3 1.7 0.4
v 0.3 1.8 0.4
v 0.3 2 0.4
v 0.3 2.1 0.4
v 0.3 2.2 0.4
v 0.3 2.3 0.4
v 0.4 1.4 0.4
v 0.4 1.8 0.4
v 0.4 2 0.4
v 0.4 2.2 0.4
v -0.7 2 0.3
v -0.7 2.3 0.3
v -0.6 1.9 0.3
v -0.6 2 0.3
v -0.6 2.3 0.3
v -0.6 2.4 0.3
v -0.5 1.8 0.3
v -0.5 1.9 0.3
v -0.5 2.1 0.3
v -0.5 2.3 0.3
v -0.4 1.8 0.3
v -0.4 2 0.3
v -0.4 2.1 0.3
v -0.4 2.3 0.3
v -0.4 2.4 0.3
v 0.4 1.8 0.3
v 0.4 2 0.3
v 0.4 2.1 0.3
v 0.4 2.3 0.3
v 0.4 2.4 0.3
v 0.5 1.8 0.3
v 0.5 1.9 0.3
v 0.5 2.1 0.3
v 0.5 2.3 0.3
v 0.6 1.9 0.3
v 0.6 2 0.3
v 0.6 2.3 0.3
v 0.6 2.4 0.3
v 0.7 2 0.3
v 0.7 2.3 0.3
v -0.3 1.4 5.96046e-008
v -0.3 2.2 5.96046e-008
v -0.2 1.4 5.96046e-008
v -0.2 2.2 5.96046e-008
v -0.2 2.3 5.96046e-008
v 0.2 1.4 5.96046e-008
v 0.2 2.2 5.96046e-008
v 0.2 2.3 5.96046e-008
v 0.3 1.4 5.96046e-008
v 0.3 2.2 5.96046e-008
v -0.2 1.4 -0.1
v -0.2 2.2 -0.1
v 0.2 1.4 -0.1
v 0.2 2.2 -0.1
v -0.2 1.4 0.5
v -0.2 1.7 0.5
v -0.2 1.8 0.5
v -0.2 2 0.5
v -0.2 2.1 0.5
v -0.2 2.2 0.5
v -0.1 1.4 0.5
v -0.1 1.8 0.5
v 0.1 1.4 0.5
v 0.1 1.8 0.5
v 0.2 1.4 0.5
v 0.2 1.7 0.5
v 0.2 1.8 0.5
v 0.2 2 0.5
v 0.2 2.1 0.5
v 0.2 2.2 0.5
v -0.3 1.4 0.4
v -0.3 1.7 0.4
v -0.3 1.8 0.4
v -0.3 2 0.4
v -0.3 2.1 0.4
v -0.3 2.2 0.4
v -0.2 1.4 0.4
v -0.2 1.7 0.4
v -0.2 1.8 0.4
v -0.2 2 0.4
v -0.2 2.1 0.4
v -0.2 2.2 0.4
v -0.2 2.3 0.4
v 0.2 1.4 0.4
v 0.2 1.7 0.4
v 0.2 1.8 0.4
v 0.2 2 0.4
v 0.2 2.1 0.4
v 0.2 2.2 0.4
v 0.2 2.3 0.4
v 0.3 1.4 0.4
v 0.3 1.7 0.4
v 0.3 1.8 0.4
v 0.3 2 0.4
v 0.3 2.1 0.4
v 0.3 2.2 0.4
v -0.7 2 0.1
v -0.7 2.3 0.1
v -0.6 1.9 0.1
v -0.6 2 0.1
v -0.6 2.3 0.1
v -0.6 2.4 0.1
v -0.5 1.8 0.1
v -0.5 1.9 0.1
v -0.5 2.1 0.1
v -0.5 2.3 0.1
v -0.4 1.8 0.1
v -0.4 2.1 0.1
v -0.4 2.3 0.1
v -0.4 2.4 0.1
v 0.4 1.8 0.1
v 0.4 2.1 0.1
v 0.4 2.3 0.1
v 0.4 2.4 0.1
v 0.5 1.8 0.1
v 0.5 1.9 0.1
v 0.5 2.1 0.1
v 0.5 2.3 0.1
v 0.6 1.9 0.1
v 0.6 2 0.1
v 0.6 2.3 0.1
v 0.6 2.4 0.1
v 0.7 2 0.1
v 0.7 2.3 0.1
v -0.4 1.4 5.96046e-008
v -0.4 2.2 5.96046e-008
v -0.3 1.4 5.96046e-008
v -0.3 2.2 5.96046e-008
v -0.3 2.3 5.96046e-008
v -0.2 2.2 5.96046e-008
v -0.2 2.3 5.96046e-008
v -0.2 2.4 5.96046e-008
v 0.2 2.2 5.96046e-008
v 0.2 2.3 5.96046e-008
v 0.2 2.4 5.96046e-008
v 0.3 1.4 5.96046e-008
v 0.3 2.2 5.96046e-008
v 0.3 2.3 5.96046e-008
v 0.4 1.4 5.96046e-008
v 0.4 2.2 5.96046e-008
v -0.3 1.4 -0.1
v -0.3 2.2 -0.1
v -0.2 1.4 -0.1
v -0.2 2.2 -0.1
v -0.2 2.3 -0.1
v 0.2 1.4 -0.1
v 0.2 2.2 -0.1
v 0.2 2.3 -0.1
v 0.3 1.4 -0.1
v 0.3 2.2 -0.1
v -0.2 1.4 -0.2
v -0.2 2.2 -0.2
v 0.2 1.4 -0.2
v 0.2 2.2 -0.2
v -0.2 1.4 0.6
v -0.1 1.4 0.6
v 0.1 1.4 0.6
v 0.2 1.4 0.6
v -0.3 1.4 0.5
v -0.2 1.4 0.5
v -0.1 1.4 0.5
v 0.1 1.4 0.5
v 0.2 1.4 0.5
v 0.3 1.4 0.5
v -0.4 1.4 0.4
v -0.3 1.4 0.4
v -0.2 1.4 0.4
v 0.2 1.4 0.4
v 0.3 1.4 0.4
v 0.4 1.4 0.4
v -0.4 1.4 5.96046e-008
v -0.3 1.4 5.96046e-008
v -0.2 1.4 5.96046e-008
v 0.2 1.4 5.96046e-008
v 0.3 1.4 5.96046e-008
v 0.4 1.4 5.96046e-008
v -0.3 1.4 -0.1
v -0.2 1.4 -0.1
v 0.2 1.4 -0.1
v 0.3 1.4 -0.1
v -0.2 1.4 -0.2
v 0.2 1.4 -0.2
v -0.5 1.8 0.3
v -0.4 1.8 0.3
v 0.4 1.8 0.3
v 0.5 1.8 0.3
v -0.5 1.8 0.1
v -0.4 1.8 0.1
v 0.4 1.8 0.1
v 0.5 1.8 0.1
v -0.6 1.9 0.3
v -0.5 1.9 0.3
v 0.5 1.9 0.3
v 0.6 1.9 0.3
v -0.6 1.9 0.1
v -0.5 1.9 0.1
v 0.5 1.9 0.1
v 0.6 1.9 0.1
v -0.2 2 0.6
v 0.2 2 0.6
v -0.3 2 0.5
v -0.2 2 0.5
v 0.2 2 0.5
v 0.3 2 0.5
v -0.3 2 0.4
v -0.2 2 0.4
v 0.2 2 0.4
v 0.3 2 0.4
v -0.7 2 0.3
v -0.6 2 0.3
v 0.6 2 0.3
v 0.7 2 0.3
v -0.7 2 0.1
v -0.6 2 0.1
v 0.6 2 0.1
v 0.7 2 0.1
v -0.2 2.2 0.5
v 0.2 2.2 0.5
v -0.3 2.2 0.4
v -0.2 2.2 0.4
v 0.2 2.2 0.4
v 0.3 2.2 0.4
v -0.3 2.2 5.96046e-008
v -0.2 2.2 5.96046e-008
v 0.2 2.2 5.96046e-008
v 0.3 2.2 5.96046e-008
v -0.2 2.2 -0.1
v 0.2 2.2 -0.1
v -0.2 2.3 0.4
v 0.2 2.3 0.4
v -0.5 2.3 0.3
v -0.4 2.3 0.3
v 0.4 2.3 0.3
v 0.5 2.3 0.3
v -0.5 2.3 0.1
v -0.4 2.3 0.1
v 0.4 2.3 0.1
v 0.5 2.3 0.1
v -0.2 2.3 5.96046e-008
v 0.2 2.3 5.96046e-008
v -0.2 1.8 0.6
v -0.1 1.8 0.6
v 0.1 1.8 0.6
v 0.2 1.8 0.6
v -0.3 1.8 0.5
v -0.2 1.8 0.5
v -0.1 1.8 0.5
v 0.1 1.8 0.5
v 0.2 1.8 0.5
v 0.3 1.8 0.5
v -0.3 1.8 0.4
v -0.2 1.8 0.4
v 0.2 1.8 0.4
v 0.3 1.8 0.4
v -0.5 2.1 0.3
v -0.4 2.1 0.3
v 0.4 2.1 0.3
v 0.5 2.1 0.3
v -0.5 2.1 0.1
v -0.4 2.1 0.1
v 0.4 2.1 0.1
v 0.5 2.1 0.1
v -0.2 2.2 0.6
v 0.2 2.2 0.6
v -0.3 2.2 0.5
v -0.2 2.2 0.5
v 0.2 2.2 0.5
v 0.3 2.2 0.5
v -0.4 2.2 0.4
v -0.3 2.2 0.4
v -0.2 2.2 0.4
v 0.2 2.2 0.4
v 0.3 2.2 0.4
v 0.4 2.2 0.4
v -0.4 2.2 5.96046e-008
v -0.3 2.2 5.96046e-008
v -0.2 2.2 5.96046e-008
v 0.2 2.2 5.96046e-008
v 0.3 2.2 5.96046e-008
v 0.4 2.2 5.96046e-008
v -0.3 2.2 -0.1
v -0.2 2.2 -0.1
v 0.2 2.2 -0.1
v 0.3 2.2 -0.1
v -0.2 2.2 -0.2
v 0.2 2.2 -0.2
v -0.2 2.3 0.5
v 0.2 2.3 0.5
v -0.3 2.3 0.4
v -0.2 2.3 0.4
v 0.2 2.3 0.4
v 0.3 2.3 0.4
v -0.7 2.3 0.3
v -0.6 2.3 0.3
v 0.6 2.3 0.3
v 0.7 2.3 0.3
v -0.7 2.3 0.1
v -0.6 2.3 0.1
v 0.6 2.3 0.1
v 0.7 2.3 0.1
v -0.3 2.3 5.96046e-008
v -0.2 2.3 5.96046e-008
v 0.2 2.3 5.96046e-008
v 0.3 2.3 5.96046e-008
v -0.2 2.3 -0.1
v 0.2 2.3 -0.1
v -0.2 2.4 0.4
v 0.2 2.4 0.4
v -0.6 2.4 0.3
v -0.4 2.4 0.3
v 0.4 2.4 0.3
v 0.6 2.4 0.3
v -0.6 2.4 0.1
v -0.4 2.4 0.1
v 0.4 2.4 0.1
v 0.6 2.4 0.1
v -0.2 2.4 5.96046e-008
v 0.2 2.4 5.96046e-008

# faces
f 3/3/1 2/3/1 1/3/1
f 4/3/1 2/3/1 3/3/1
f 7/3/1 6/3/1 5/3/1
f 8/3/1 6/3/1 7/3/1
f 11/3/1 10/3/1 9/3/1
f 12/3/1 10/3/1 11/3/1
f 15/3/1 14/3/1 13/3/1
f 16/3/1 14/3/1 15/3/1
f 19/2/1 18/2/1 17/2/1
f 20/2/1 18/2/1 19/2/1
f 21/2/1 18/2/1 20/2/1
f 22/1/1 20/1/1 19/1/1
f 23/1/1 20/1/1 22/1/1
f 24/2/1 23/2/1 22/2/1
f 25/2/1 18/2/1 21/2/1
f 26/2/1 24/2/1 22/2/1
f 26/2/1 25/2/1 24/2/1
f 27/2/1 18/2/1 25/2/1
f 27/2/1 25/2/1 26/2/1
f 32/2/1 29/2/1 28/2/1
f 33/2/1 29/2/1 32/2/1
f 34/1/1 33/1/1 32/1/1
f 35/1/1 33/1/1 34/1/1
f 38/1/1 37/1/1 36/1/1
f 39/1/1 37/1/1 38/1/1
f 40/2/1 39/2/1 38/2/1
f 41/2/1 39/2/1 40/2/1
f 42/2/1 31/2/1 30/2/1
f 43/2/1 31/2/1 42/2/1
f 44/2/1 42/2/1 41/2/1
f 45/2/1 42/2/1 44/2/1
f 50/1/1 47/1/1 46/1/1
f 51/1/1 50/1/1 46/1/1
f 52/1/1 50/1/1 51/1/1
f 55/1/1 54/1/1 53/1/1
f 56/1/1 54/1/1 55/1/1
f 57/2/1 56/2/1 55/2/1
f 58/2/1 56/2/1 57/2/1
f 61/2/1 49/2/1 48/2/1
f 62/2/1 49/2/1 61/2/1
f 63/2/1 59/2/1 58/2/1
f 64/2/1 59/2/1 63/2/1
f 65/2/1 61/2/1 60/2/1
f 66/2/1 61/2/1 65/2/1
f 67/2/1 65/2/1 64/2/1
f 68/2/1 65/2/1 67/2/1
f 71/1/1 70/1/1 69/1/1
f 72/1/1 70/1/1 71/1/1
f 77/2/1 74/2/1 73/2/1
f 78/2/1 74/2/1 77/2/1
f 79/1/1 78/1/1 77/1/1
f 80/1/1 78/1/1 79/1/1
f 83/1/1 82/1/1 81/1/1
f 84/1/1 82/1/1 83/1/1
f 85/2/1 84/2/1 83/2/1
f 86/2/1 84/2/1 85/2/1
f 87/2/1 76/2/1 75/2/1
f 88/2/1 76/2/1 87/2/1
f 89/2/1 87/2/1 86/2/1
f 90/2/1 87/2/1 89/2/1
f 93/2/1 92/2/1 91/2/1
f 94/2/1 92/2/1 93/2/1
f 95/2/1 92/2/1 94/2/1
f 96/1/1 95/1/1 94/1/1
f 97/2/1 92/2/1 95/2/1
f 97/1/1 95/1/1 96/1/1
f 98/2/1 97/2/1 96/2/1
f 99/2/1 97/2/1 98/2/1
f 100/2/1 92/2/1 97/2/1
f 100/2/1 97/2/1 99/2/1
f 103/3/1 102/3/1 101/3/1
f 104/3/1 102/3/1 103/3/1
f 107/3/1 106/3/1 105/3/1
f 108/3/1 106/3/1 107/3/1
f 109/3/2 110/3/2 111/3/2
f 111/3/2 110/3/2 112/3/2
f 113/3/2 114/3/2 115/3/2
f 115/3/2 114/3/2 116/3/2
f 117/2/2 118/2/2 119/2/2
f 119/2/2 118/2/2 120/2/2
f 120/2/2 118/2/2 121/2/2
f 120/1/2 121/1/2 122/1/2
f 121/2/2 118/2/2 123/2/2
f 122/1/2 121/1/2 123/1/2
f 122/2/2 123/2/2 124/2/2
f 124/2/2 123/2/2 125/2/2
f 123/2/2 118/2/2 126/2/2
f 125/2/2 123/2/2 126/2/2
f 127/2/2 128/2/2 131/2/2
f 131/2/2 128/2/2 132/2/2
f 131/1/2 132/1/2 133/1/2
f 133/1/2 132/1/2 134/1/2
f 135/1/2 136/1/2 137/1/2
f 137/1/2 136/1/2 138/1/2
f 137/2/2 138/2/2 139/2/2
f 139/2/2 138/2/2 140/2/2
f 129/2/2 130/2/2 141/2/2
f 141/2/2 130/2/2 142/2/2
f 140/2/2 141/2/2 143/2/2
f 143/2/2 141/2/2 144/2/2
f 145/1/2 146/1/2 147/1/2
f 147/1/2 146/1/2 148/1/2
f 149/1/2 150/1/2 153/1/2
f 149/1/2 153/1/2 154/1/2
f 154/1/2 153/1/2 155/1/2
f 156/1/2 157/1/2 158/1/2
f 158/1/2 157/1/2 159/1/2
f 158/2/2 159/2/2 160/2/2
f 160/2/2 159/2/2 161/2/2
f 151/2/2 152/2/2 164/2/2
f 164/2/2 152/2/2 165/2/2
f 161/2/2 162/2/2 166/2/2
f 166/2/2 162/2/2 167/2/2
f 163/2/2 164/2/2 168/2/2
f 168/2/2 164/2/2 169/2/2
f 167/2/2 168/2/2 170/2/2
f 170/2/2 168/2/2 171/2/2
f 172/2/2 173/2/2 176/2/2
f 176/2/2 173/2/2 177/2/2
f 176/1/2 177/1/2 178/1/2
f 178/1/2 177/1/2 179/1/2
f 180/1/2 181/1/2 182/1/2
f 182/1/2 181/1/2 183/1/2
f 182/2/2 183/2/2 184/2/2
f 184/2/2 183/2/2 185/2/2
f 174/2/2 175/2/2 186/2/2
f 186/2/2 175/2/2 187/2/2
f 185/2/2 186/2/2 188/2/2
f 188/2/2 186/2/2 189/2/2
f 190/2/2 191/2/2 192/2/2
f 192/2/2 191/2/2 193/2/2
f 193/2/2 191/2/2 194/2/2
f 192/1/2 193/1/2 195/1/2
f 195/1/2 193/1/2 196/1/2
f 195/2/2 196/2/2 197/2/2
f 194/2/2 191/2/2 198/2/2
f 195/2/2 197/2/2 199/2/2
f 197/2/2 198/2/2 199/2/2
f 198/2/2 191/2/2 200/2/2
f 199/2/2 198/2/2 200/2/2
f 201/3/2 202/3/2 203/3/2
f 203/3/2 202/3/2 204/3/2
f 205/3/2 206/3/2 207/3/2
f 207/3/2 206/3/2 208/3/2
f 209/3/2 210/3/2 211/3/2
f 211/3/2 210/3/2 212/3/2
f 213/3/2 214/3/2 215/3/2
f 215/3/2 214/3/2 216/3/2
f 222/1/3 218/1/3 217/1/3
f 223/1/3 218/1/3 222/1/3
f 226/1/3 225/1/3 224/1/3
f 227/1/3 225/1/3 226/1/3
f 228/1/3 220/1/3 219/1/3
f 229/2/3 221/2/3 220/2/3
f 229/1/3 220/1/3 228/1/3
f 230/2/3 221/2/3 229/2/3
f 237/2/3 232/2/3 231/2/3
f 238/1/3 233/1/3 232/1/3
f 238/2/3 232/2/3 237/2/3
f 239/1/3 233/1/3 238/1/3
f 240/1/3 235/1/3 234/1/3
f 241/2/3 236/2/3 235/2/3
f 241/1/3 235/1/3 240/1/3
f 242/2/3 236/2/3 241/2/3
f 249/2/3 243/2/3 242/2/3
f 250/2/3 243/2/3 249/2/3
f 251/2/3 245/2/3 244/2/3
f 252/1/3 246/1/3 245/1/3
f 252/2/3 245/2/3 251/2/3
f 253/1/3 246/1/3 252/1/3
f 254/1/3 248/1/3 247/1/3
f 255/2/3 249/2/3 248/2/3
f 255/1/3 248/1/3 254/1/3
f 256/2/3 249/2/3 255/2/3
f 261/2/3 258/2/3 257/2/3
f 262/2/3 258/2/3 261/2/3
f 263/1/3 259/1/3 258/1/3
f 263/2/3 258/2/3 262/2/3
f 264/2/3 260/2/3 259/2/3
f 264/1/3 259/1/3 263/1/3
f 265/2/3 260/2/3 264/2/3
f 266/2/3 260/2/3 265/2/3
f 268/2/3 267/2/3 266/2/3
f 269/2/3 267/2/3 268/2/3
f 272/2/3 270/2/3 269/2/3
f 273/2/3 270/2/3 272/2/3
f 279/2/3 272/2/3 271/2/3
f 280/2/3 272/2/3 279/2/3
f 281/2/3 275/2/3 274/2/3
f 281/2/3 276/2/3 275/2/3
f 282/1/3 277/1/3 276/1/3
f 282/2/3 276/2/3 281/2/3
f 283/2/3 278/2/3 277/2/3
f 283/1/3 277/1/3 282/1/3
f 283/2/3 279/2/3 278/2/3
f 284/2/3 279/2/3 283/2/3
f 288/3/3 286/3/3 285/3/3
f 289/3/3 286/3/3 288/3/3
f 292/3/3 288/3/3 287/3/3
f 292/3/3 290/3/3 289/3/3
f 292/3/3 289/3/3 288/3/3
f 293/3/3 290/3/3 292/3/3
f 294/3/3 290/3/3 293/3/3
f 295/3/3 292/3/3 291/3/3
f 295/3/3 293/3/3 292/3/3
f 296/3/3 293/3/3 295/3/3
f 297/3/3 293/3/3 296/3/3
f 298/3/3 290/3/3 294/3/3
f 299/3/3 290/3/3 298/3/3
f 305/3/3 301/3/3 300/3/3
f 305/3/3 302/3/3 301/3/3
f 306/3/3 302/3/3 305/3/3
f 307/3/3 302/3/3 306/3/3
f 308/3/3 304/3/3 303/3/3
f 309/3/3 307/3/3 306/3/3
f 309/3/3 308/3/3 307/3/3
f 310/3/3 308/3/3 309/3/3
f 311/3/3 304/3/3 308/3/3
f 311/3/3 308/3/3 310/3/3
f 312/3/3 304/3/3 311/3/3
f 313/3/3 311/3/3 310/3/3
f 314/3/3 311/3/3 313/3/3
f 317/2/3 316/2/3 315/2/3
f 318/2/3 316/2/3 317/2/3
f 321/2/3 319/2/3 318/2/3
f 322/2/3 319/2/3 321/2/3
f 323/2/3 321/2/3 320/2/3
f 324/2/3 321/2/3 323/2/3
f 327/2/3 326/2/3 325/2/3
f 328/2/3 326/2/3 327/2/3
f 329/1/4 330/1/4 335/1/4
f 330/1/4 331/1/4 335/1/4
f 335/1/4 331/1/4 336/1/4
f 337/1/4 338/1/4 339/1/4
f 339/1/4 338/1/4 340/1/4
f 340/1/4 338/1/4 341/1/4
f 332/1/4 333/1/4 342/1/4
f 333/2/4 334/2/4 343/2/4
f 342/1/4 333/1/4 343/1/4
f 343/2/4 334/2/4 344/2/4
f 345/2/4 346/2/4 351/2/4
f 346/1/4 347/1/4 352/1/4
f 351/2/4 346/2/4 352/2/4
f 352/1/4 347/1/4 353/1/4
f 348/1/4 349/1/4 354/1/4
f 349/2/4 350/2/4 355/2/4
f 354/1/4 349/1/4 355/1/4
f 355/2/4 350/2/4 356/2/4
f 356/2/4 357/2/4 363/2/4
f 363/2/4 357/2/4 364/2/4
f 358/2/4 359/2/4 365/2/4
f 359/1/4 360/1/4 366/1/4
f 365/2/4 359/2/4 366/2/4
f 366/1/4 360/1/4 367/1/4
f 361/1/4 362/1/4 368/1/4
f 362/2/4 363/2/4 369/2/4
f 368/1/4 362/1/4 369/1/4
f 369/2/4 363/2/4 370/2/4
f 371/3/4 372/3/4 374/3/4
f 374/3/4 372/3/4 375/3/4
f 373/3/4 374/3/4 378/3/4
f 375/3/4 376/3/4 378/3/4
f 374/3/4 375/3/4 378/3/4
f 378/3/4 376/3/4 379/3/4
f 379/3/4 376/3/4 380/3/4
f 377/3/4 378/3/4 381/3/4
f 378/3/4 379/3/4 381/3/4
f 381/3/4 379/3/4 382/3/4
f 380/3/4 376/3/4 383/3/4
f 383/3/4 376/3/4 384/3/4
f 385/3/4 386/3/4 389/3/4
f 389/3/4 386/3/4 390/3/4
f 390/3/4 386/3/4 391/3/4
f 387/3/4 388/3/4 392/3/4
f 390/3/4 391/3/4 393/3/4
f 391/3/4 392/3/4 393/3/4
f 393/3/4 392/3/4 394/3/4
f 392/3/4 388/3/4 395/3/4
f 394/3/4 392/3/4 395/3/4
f 395/3/4 388/3/4 396/3/4
f 394/3/4 395/3/4 397/3/4
f 397/3/4 395/3/4 398/3/4
f 399/2/4 400/2/4 401/2/4
f 401/2/4 400/2/4 402/2/4
f 402/2/4 403/2/4 404/2/4
f 404/2/4 403/2/4 405/2/4
f 405/2/4 406/2/4 408/2/4
f 408/2/4 406/2/4 409/2/4
f 407/2/4 408/2/4 411/2/4
f 411/2/4 408/2/4 412/2/4
f 410/2/4 411/2/4 413/2/4
f 413/2/4 411/2/4 414/2/4
f 415/2/4 416/2/4 417/2/4
f 417/2/4 416/2/4 418/2/4
f 418/2/4 419/2/4 421/2/4
f 421/2/4 419/2/4 422/2/4
f 420/2/4 421/2/4 423/2/4
f 423/2/4 421/2/4 424/2/4
f 425/2/4 426/2/4 427/2/4
f 427/2/4 426/2/4 428/2/4
f 434/1/5 430/1/5 429/1/5
f 435/1/5 430/1/5 434/1/5
f 436/1/5 432/1/5 431/1/5
f 437/1/5 432/1/5 436/1/5
f 440/2/5 434/2/5 433/2/5
f 441/2/5 434/2/5 440/2/5
f 442/2/5 438/2/5 437/2/5
f 443/2/5 438/2/5 442/2/5
f 445/2/5 440/2/5 439/2/5
f 446/2/5 440/2/5 445/2/5
f 449/2/5 444/2/5 443/2/5
f 450/2/5 444/2/5 449/2/5
f 451/2/5 447/2/5 446/2/5
f 452/2/5 447/2/5 451/2/5
f 453/2/5 449/2/5 448/2/5
f 454/2/5 449/2/5 453/2/5
f 455/2/5 453/2/5 452/2/5
f 456/2/5 453/2/5 455/2/5
f 461/3/5 458/3/5 457/3/5
f 462/3/5 458/3/5 461/3/5
f 463/3/5 460/3/5 459/3/5
f 464/3/5 460/3/5 463/3/5
f 469/3/5 466/3/5 465/3/5
f 470/3/5 466/3/5 469/3/5
f 471/3/5 468/3/5 467/3/5
f 472/3/5 468/3/5 471/3/5
f 476/1/5 474/1/5 473/1/5
f 477/1/5 474/1/5 476/1/5
f 479/1/5 476/1/5 475/1/5
f 480/1/5 476/1/5 479/1/5
f 481/1/5 478/1/5 477/1/5
f 482/1/5 478/1/5 481/1/5
f 487/3/5 484/3/5 483/3/5
f 488/3/5 484/3/5 487/3/5
f 489/3/5 486/3/5 485/3/5
f 490/3/5 486/3/5 489/3/5
f 494/2/5 492/2/5 491/2/5
f 495/2/5 492/2/5 494/2/5
f 497/2/5 494/2/5 493/2/5
f 498/2/5 494/2/5 497/2/5
f 499/2/5 496/2/5 495/2/5
f 500/2/5 496/2/5 499/2/5
f 501/2/5 499/2/5 498/2/5
f 502/2/5 499/2/5 501/2/5
f 509/3/5 506/3/5 505/3/5
f 510/3/5 506/3/5 509/3/5
f 511/3/5 508/3/5 507/3/5
f 512/3/5 508/3/5 511/3/5
f 513/2/5 504/2/5 503/2/5
f 514/2/5 504/2/5 513/2/5
f 515/1/6 516/1/6 520/1/6
f 520/1/6 516/1/6 521/1/6
f 517/1/6 518/1/6 522/1/6
f 522/1/6 518/1/6 523/1/6
f 519/1/6 520/1/6 525/1/6
f 525/1/6 520/1/6 526/1/6
f 523/1/6 524/1/6 527/1/6
f 527/1/6 524/1/6 528/1/6
f 529/3/6 530/3/6 533/3/6
f 533/3/6 530/3/6 534/3/6
f 531/3/6 532/3/6 535/3/6
f 535/3/6 532/3/6 536/3/6
f 537/2/6 538/2/6 540/2/6
f 540/2/6 538/2/6 541/2/6
f 539/2/6 540/2/6 544/2/6
f 544/2/6 540/2/6 545/2/6
f 541/2/6 542/2/6 546/2/6
f 546/2/6 542/2/6 547/2/6
f 543/2/6 544/2/6 549/2/6
f 549/2/6 544/2/6 550/2/6
f 547/2/6 548/2/6 553/2/6
f 553/2/6 548/2/6 554/2/6
f 550/2/6 551/2/6 555/2/6
f 555/2/6 551/2/6 556/2/6
f 552/2/6 553/2/6 557/2/6
f 557/2/6 553/2/6 558/2/6
f 556/2/6 557/2/6 559/2/6
f 559/2/6 557/2/6 560/2/6
f 561/2/6 562/2/6 564/2/6
f 564/2/6 562/2/6 565/2/6
f 567/3/6 568/3/6 571/3/6
f 571/3/6 568/3/6 572/3/6
f 569/3/6 570/3/6 573/3/6
f 573/3/6 570/3/6 574/3/6
f 563/2/6 564/2/6 575/2/6
f 575/2/6 564/2/6 576/2/6
f 565/2/6 566/2/6 577/2/6
f 577/2/6 566/2/6 578/2/6
f 576/2/6 577/2/6 579/2/6
f 579/2/6 577/2/6 580/2/6
f 583/3/6 584/3/6 587/3/6
f 587/3/6 584/3/6 588/3/6
f 585/3/6 586/3/6 589/3/6
f 589/3/6 586/3/6 590/3/6
f 581/2/6 582/2/6 591/2/6
f 591/2/6 582/2/6 592/2/6
