# MagicaVoxel @ Ephtracy

# group
o 

# material
mtllib pSpell.mtl
usemtl palette

# normals
vn -1 0 0
vn 1 0 0
vn 0 0 1
vn 0 0 -1
vn 0 -1 0
vn 0 1 0

# texcoords
vt 0.0332031 0.5
vt 0.0371094 0.5

# verts
v -0.9 0.1 0.1
v -0.9 0.1 -0.4
v -0.9 0.2 0
v -0.9 0.2 -0.4
v -0.9 0.2 -0.6
v -0.9 0.3 0
v -0.9 0.3 -0.2
v -0.9 0.3 -0.4
v -0.9 0.3 -0.6
v -0.9 0.4 0.1
v -0.9 0.4 -0.2
v -0.9 0.4 -0.4
v -0.8 0 0.1
v -0.8 0 0
v -0.8 0 -0.4
v -0.8 0.1 0.2
v -0.8 0.1 0.1
v -0.8 0.1 0
v -0.8 0.1 -0.4
v -0.8 0.1 -0.6
v -0.8 0.2 0.3
v -0.8 0.2 0.2
v -0.8 0.2 -0.4
v -0.8 0.2 -0.6
v -0.8 0.2 -0.8
v -0.8 0.3 0.3
v -0.8 0.3 0.2
v -0.8 0.3 -0.4
v -0.8 0.3 -0.6
v -0.8 0.3 -0.8
v -0.8 0.4 0.2
v -0.8 0.4 0.1
v -0.8 0.4 0
v -0.8 0.4 -0.2
v -0.8 0.4 -0.4
v -0.8 0.4 -0.6
v -0.8 0.5 0.1
v -0.8 0.5 0
v -0.8 0.5 -0.4
v -0.7 0 -0.4
v -0.7 0 -0.6
v -0.7 0.1 0.3
v -0.7 0.1 0.2
v -0.7 0.1 -0.4
v -0.7 0.1 -0.6
v -0.7 0.1 -0.8
v -0.7 0.2 0.3
v -0.7 0.2 0.2
v -0.7 0.2 -0.6
v -0.7 0.2 -0.8
v -0.7 0.2 -1.1
v -0.7 0.3 0.3
v -0.7 0.3 0.2
v -0.7 0.3 -0.6
v -0.7 0.3 -0.8
v -0.7 0.3 -1.1
v -0.7 0.4 0.3
v -0.7 0.4 0.2
v -0.7 0.4 -0.4
v -0.7 0.4 -0.6
v -0.7 0.4 -0.8
v -0.7 0.5 -0.4
v -0.7 0.5 -0.6
v -0.6 0 -0.4
v -0.6 0 -0.6
v -0.6 0.1 0.3
v -0.6 0.1 0.2
v -0.6 0.1 -0.4
v -0.6 0.1 -0.6
v -0.6 0.1 -0.8
v -0.6 0.2 0.3
v -0.6 0.2 0.2
v -0.6 0.2 -0.6
v -0.6 0.2 -0.8
v -0.6 0.2 -1.1
v -0.6 0.3 0.3
v -0.6 0.3 0.2
v -0.6 0.3 -0.6
v -0.6 0.3 -0.8
v -0.6 0.3 -1.1
v -0.6 0.4 0.3
v -0.6 0.4 0.2
v -0.6 0.4 -0.4
v -0.6 0.4 -0.6
v -0.6 0.4 -0.8
v -0.6 0.5 -0.4
v -0.6 0.5 -0.6
v -0.5 0 0.1
v -0.5 0 0
v -0.5 0 -0.4
v -0.5 0.1 0.2
v -0.5 0.1 0.1
v -0.5 0.1 0
v -0.5 0.1 -0.2
v -0.5 0.1 -0.4
v -0.5 0.1 -0.6
v -0.5 0.2 0.3
v -0.5 0.2 0.2
v -0.5 0.2 -0.4
v -0.5 0.2 -0.6
v -0.5 0.2 -0.8
v -0.5 0.3 0.3
v -0.5 0.3 0.2
v -0.5 0.3 -0.4
v -0.5 0.3 -0.6
v -0.5 0.3 -0.8
v -0.5 0.4 0.2
v -0.5 0.4 0.1
v -0.5 0.4 0
v -0.5 0.4 -0.4
v -0.5 0.4 -0.6
v -0.5 0.5 0.1
v -0.5 0.5 0
v -0.5 0.5 -0.4
v -0.4 0.1 0.1
v -0.4 0.1 -0.2
v -0.4 0.1 -0.4
v -0.4 0.2 0
v -0.4 0.2 -0.2
v -0.4 0.2 -0.4
v -0.4 0.2 -0.6
v -0.4 0.3 0
v -0.4 0.3 -0.4
v -0.4 0.3 -0.6
v -0.4 0.4 0.1
v -0.4 0.4 -0.4
v -0.8 0.2 0.3
v -0.8 0.3 0.3
v -0.7 0.1 0.3
v -0.7 0.2 0.3
v -0.7 0.3 0.3
v -0.7 0.4 0.3
v -0.6 0.1 0.3
v -0.6 0.2 0.3
v -0.6 0.3 0.3
v -0.6 0.4 0.3
v -0.5 0.2 0.3
v -0.5 0.3 0.3
v -0.8 0.1 0.2
v -0.8 0.2 0.2
v -0.8 0.3 0.2
v -0.8 0.4 0.2
v -0.7 0.1 0.2
v -0.7 0.2 0.2
v -0.7 0.3 0.2
v -0.7 0.4 0.2
v -0.6 0.1 0.2
v -0.6 0.2 0.2
v -0.6 0.3 0.2
v -0.6 0.4 0.2
v -0.5 0.1 0.2
v -0.5 0.2 0.2
v -0.5 0.3 0.2
v -0.5 0.4 0.2
v -0.9 0.1 0.1
v -0.9 0.4 0.1
v -0.8 0 0.1
v -0.8 0.1 0.1
v -0.8 0.4 0.1
v -0.8 0.5 0.1
v -0.5 0 0.1
v -0.5 0.1 0.1
v -0.5 0.4 0.1
v -0.5 0.5 0.1
v -0.4 0.1 0.1
v -0.4 0.4 0.1
v -0.9 0.1 -0.4
v -0.9 0.2 -0.4
v -0.9 0.3 -0.4
v -0.9 0.4 -0.4
v -0.8 0 -0.4
v -0.8 0.1 -0.4
v -0.8 0.2 -0.4
v -0.8 0.3 -0.4
v -0.8 0.4 -0.4
v -0.8 0.5 -0.4
v -0.7 0 -0.4
v -0.7 0.1 -0.4
v -0.7 0.4 -0.4
v -0.7 0.5 -0.4
v -0.6 0 -0.4
v -0.6 0.1 -0.4
v -0.6 0.4 -0.4
v -0.6 0.5 -0.4
v -0.5 0 -0.4
v -0.5 0.1 -0.4
v -0.5 0.2 -0.4
v -0.5 0.3 -0.4
v -0.5 0.4 -0.4
v -0.5 0.5 -0.4
v -0.4 0.1 -0.4
v -0.4 0.2 -0.4
v -0.4 0.3 -0.4
v -0.4 0.4 -0.4
v -0.9 0.2 -0.6
v -0.9 0.3 -0.6
v -0.8 0.1 -0.6
v -0.8 0.2 -0.6
v -0.8 0.3 -0.6
v -0.8 0.4 -0.6
v -0.7 0 -0.6
v -0.7 0.1 -0.6
v -0.7 0.2 -0.6
v -0.7 0.3 -0.6
v -0.7 0.4 -0.6
v -0.7 0.5 -0.6
v -0.6 0 -0.6
v -0.6 0.1 -0.6
v -0.6 0.2 -0.6
v -0.6 0.3 -0.6
v -0.6 0.4 -0.6
v -0.6 0.5 -0.6
v -0.5 0.1 -0.6
v -0.5 0.2 -0.6
v -0.5 0.3 -0.6
v -0.5 0.4 -0.6
v -0.4 0.2 -0.6
v -0.4 0.3 -0.6
v -0.8 0.2 -0.8
v -0.8 0.3 -0.8
v -0.7 0.1 -0.8
v -0.7 0.2 -0.8
v -0.7 0.3 -0.8
v -0.7 0.4 -0.8
v -0.6 0.1 -0.8
v -0.6 0.2 -0.8
v -0.6 0.3 -0.8
v -0.6 0.4 -0.8
v -0.5 0.2 -0.8
v -0.5 0.3 -0.8
v -0.7 0.2 -1.1
v -0.7 0.3 -1.1
v -0.6 0.2 -1.1
v -0.6 0.3 -1.1
v -0.8 0 0.1
v -0.5 0 0.1
v -0.8 0 0
v -0.7 0 0
v -0.6 0 0
v -0.5 0 0
v -0.7 0 -0.3
v -0.6 0 -0.3
v -0.8 0 -0.4
v -0.7 0 -0.4
v -0.6 0 -0.4
v -0.5 0 -0.4
v -0.7 0 -0.6
v -0.6 0 -0.6
v -0.7 0.1 0.3
v -0.6 0.1 0.3
v -0.8 0.1 0.2
v -0.7 0.1 0.2
v -0.6 0.1 0.2
v -0.5 0.1 0.2
v -0.9 0.1 0.1
v -0.8 0.1 0.1
v -0.5 0.1 0.1
v -0.4 0.1 0.1
v -0.8 0.1 0
v -0.5 0.1 0
v -0.5 0.1 -0.2
v -0.4 0.1 -0.2
v -0.9 0.1 -0.4
v -0.8 0.1 -0.4
v -0.7 0.1 -0.4
v -0.6 0.1 -0.4
v -0.5 0.1 -0.4
v -0.4 0.1 -0.4
v -0.8 0.1 -0.6
v -0.7 0.1 -0.6
v -0.6 0.1 -0.6
v -0.5 0.1 -0.6
v -0.7 0.1 -0.8
v -0.6 0.1 -0.8
v -0.8 0.2 0.3
v -0.7 0.2 0.3
v -0.6 0.2 0.3
v -0.5 0.2 0.3
v -0.8 0.2 0.2
v -0.7 0.2 0.2
v -0.6 0.2 0.2
v -0.5 0.2 0.2
v -0.9 0.2 -0.4
v -0.8 0.2 -0.4
v -0.5 0.2 -0.4
v -0.4 0.2 -0.4
v -0.9 0.2 -0.6
v -0.8 0.2 -0.6
v -0.7 0.2 -0.6
v -0.6 0.2 -0.6
v -0.5 0.2 -0.6
v -0.4 0.2 -0.6
v -0.8 0.2 -0.8
v -0.7 0.2 -0.8
v -0.6 0.2 -0.8
v -0.5 0.2 -0.8
v -0.7 0.2 -1.1
v -0.6 0.2 -1.1
v -0.8 0.3 0.3
v -0.7 0.3 0.3
v -0.6 0.3 0.3
v -0.5 0.3 0.3
v -0.8 0.3 0.2
v -0.7 0.3 0.2
v -0.6 0.3 0.2
v -0.5 0.3 0.2
v -0.9 0.3 -0.4
v -0.8 0.3 -0.4
v -0.5 0.3 -0.4
v -0.4 0.3 -0.4
v -0.9 0.3 -0.6
v -0.8 0.3 -0.6
v -0.7 0.3 -0.6
v -0.6 0.3 -0.6
v -0.5 0.3 -0.6
v -0.4 0.3 -0.6
v -0.8 0.3 -0.8
v -0.7 0.3 -0.8
v -0.6 0.3 -0.8
v -0.5 0.3 -0.8
v -0.7 0.3 -1.1
v -0.6 0.3 -1.1
v -0.7 0.4 0.3
v -0.6 0.4 0.3
v -0.8 0.4 0.2
v -0.7 0.4 0.2
v -0.6 0.4 0.2
v -0.5 0.4 0.2
v -0.9 0.4 0.1
v -0.8 0.4 0.1
v -0.5 0.4 0.1
v -0.4 0.4 0.1
v -0.8 0.4 0
v -0.5 0.4 0
v -0.9 0.4 -0.2
v -0.8 0.4 -0.2
v -0.9 0.4 -0.4
v -0.8 0.4 -0.4
v -0.7 0.4 -0.4
v -0.6 0.4 -0.4
v -0.5 0.4 -0.4
v -0.4 0.4 -0.4
v -0.8 0.4 -0.6
v -0.7 0.4 -0.6
v -0.6 0.4 -0.6
v -0.5 0.4 -0.6
v -0.7 0.4 -0.8
v -0.6 0.4 -0.8
v -0.8 0.5 0.1
v -0.5 0.5 0.1
v -0.8 0.5 0
v -0.7 0.5 0
v -0.6 0.5 0
v -0.5 0.5 0
v -0.7 0.5 -0.3
v -0.6 0.5 -0.3
v -0.8 0.5 -0.4
v -0.7 0.5 -0.4
v -0.6 0.5 -0.4
v -0.5 0.5 -0.4
v -0.7 0.5 -0.6
v -0.6 0.5 -0.6

# faces
f 3/2/1 2/2/1 1/2/1
f 4/2/1 2/2/1 3/2/1
f 6/2/1 3/2/1 1/2/1
f 6/1/1 5/1/1 4/1/1
f 6/1/1 4/1/1 3/1/1
f 7/1/1 5/1/1 6/1/1
f 8/1/1 5/1/1 7/1/1
f 9/1/1 5/1/1 8/1/1
f 10/2/1 6/2/1 1/2/1
f 10/2/1 7/2/1 6/2/1
f 11/1/1 8/1/1 7/1/1
f 11/2/1 7/2/1 10/2/1
f 12/1/1 8/1/1 11/1/1
f 17/2/1 14/2/1 13/2/1
f 18/1/1 15/1/1 14/1/1
f 18/2/1 14/2/1 17/2/1
f 19/1/1 15/1/1 18/1/1
f 22/2/1 17/2/1 16/2/1
f 23/1/1 20/1/1 19/1/1
f 24/1/1 20/1/1 23/1/1
f 26/2/1 22/2/1 21/2/1
f 27/2/1 17/2/1 22/2/1
f 27/2/1 22/2/1 26/2/1
f 29/1/1 25/1/1 24/1/1
f 30/1/1 25/1/1 29/1/1
f 31/2/1 17/2/1 27/2/1
f 32/2/1 17/2/1 31/2/1
f 35/1/1 29/1/1 28/1/1
f 36/1/1 29/1/1 35/1/1
f 37/2/1 33/2/1 32/2/1
f 38/1/1 34/1/1 33/1/1
f 38/2/1 33/2/1 37/2/1
f 38/1/1 35/1/1 34/1/1
f 39/1/1 35/1/1 38/1/1
f 44/1/1 41/1/1 40/1/1
f 45/1/1 41/1/1 44/1/1
f 47/2/1 43/2/1 42/2/1
f 48/2/1 43/2/1 47/2/1
f 49/1/1 46/1/1 45/1/1
f 50/1/1 46/1/1 49/1/1
f 55/1/1 51/1/1 50/1/1
f 56/1/1 51/1/1 55/1/1
f 57/2/1 53/2/1 52/2/1
f 58/2/1 53/2/1 57/2/1
f 60/1/1 55/1/1 54/1/1
f 61/1/1 55/1/1 60/1/1
f 62/1/1 60/1/1 59/1/1
f 63/1/1 60/1/1 62/1/1
f 64/1/2 65/1/2 68/1/2
f 68/1/2 65/1/2 69/1/2
f 66/2/2 67/2/2 71/2/2
f 71/2/2 67/2/2 72/2/2
f 69/1/2 70/1/2 73/1/2
f 73/1/2 70/1/2 74/1/2
f 74/1/2 75/1/2 79/1/2
f 79/1/2 75/1/2 80/1/2
f 76/2/2 77/2/2 81/2/2
f 81/2/2 77/2/2 82/2/2
f 78/1/2 79/1/2 84/1/2
f 84/1/2 79/1/2 85/1/2
f 83/1/2 84/1/2 86/1/2
f 86/1/2 84/1/2 87/1/2
f 88/2/2 89/2/2 92/2/2
f 89/1/2 90/1/2 93/1/2
f 92/2/2 89/2/2 93/2/2
f 93/1/2 90/1/2 94/1/2
f 94/1/2 90/1/2 95/1/2
f 91/2/2 92/2/2 98/2/2
f 95/1/2 96/1/2 99/1/2
f 99/1/2 96/1/2 100/1/2
f 97/2/2 98/2/2 102/2/2
f 98/2/2 92/2/2 103/2/2
f 102/2/2 98/2/2 103/2/2
f 100/1/2 101/1/2 105/1/2
f 105/1/2 101/1/2 106/1/2
f 103/2/2 92/2/2 107/2/2
f 107/2/2 92/2/2 108/2/2
f 104/1/2 105/1/2 110/1/2
f 110/1/2 105/1/2 111/1/2
f 108/2/2 109/2/2 112/2/2
f 109/1/2 110/1/2 113/1/2
f 112/2/2 109/2/2 113/2/2
f 113/1/2 110/1/2 114/1/2
f 115/2/2 116/2/2 118/2/2
f 116/1/2 117/1/2 119/1/2
f 118/2/2 116/2/2 119/2/2
f 119/1/2 117/1/2 120/1/2
f 115/2/2 118/2/2 122/2/2
f 120/1/2 121/1/2 122/1/2
f 119/1/2 120/1/2 122/1/2
f 118/1/2 119/1/2 122/1/2
f 122/1/2 121/1/2 123/1/2
f 123/1/2 121/1/2 124/1/2
f 115/2/2 122/2/2 125/2/2
f 122/2/2 123/2/2 125/2/2
f 125/2/2 123/2/2 126/2/2
f 130/2/3 128/2/3 127/2/3
f 131/2/3 128/2/3 130/2/3
f 133/2/3 130/2/3 129/2/3
f 133/2/3 132/2/3 131/2/3
f 133/2/3 131/2/3 130/2/3
f 134/2/3 132/2/3 133/2/3
f 135/2/3 132/2/3 134/2/3
f 136/2/3 132/2/3 135/2/3
f 137/2/3 135/2/3 134/2/3
f 138/2/3 135/2/3 137/2/3
f 143/2/3 140/2/3 139/2/3
f 144/2/3 140/2/3 143/2/3
f 145/2/3 142/2/3 141/2/3
f 146/2/3 142/2/3 145/2/3
f 151/2/3 148/2/3 147/2/3
f 152/2/3 148/2/3 151/2/3
f 153/2/3 150/2/3 149/2/3
f 154/2/3 150/2/3 153/2/3
f 158/2/3 156/2/3 155/2/3
f 159/2/3 156/2/3 158/2/3
f 161/2/3 158/2/3 157/2/3
f 162/2/3 158/2/3 161/2/3
f 163/2/3 160/2/3 159/2/3
f 164/2/3 160/2/3 163/2/3
f 165/2/3 163/2/3 162/2/3
f 166/2/3 163/2/3 165/2/3
f 167/2/4 168/2/4 172/2/4
f 172/2/4 168/2/4 173/2/4
f 169/1/4 170/1/4 174/1/4
f 174/1/4 170/1/4 175/1/4
f 171/1/4 172/1/4 177/1/4
f 177/1/4 172/1/4 178/1/4
f 175/1/4 176/1/4 179/1/4
f 179/1/4 176/1/4 180/1/4
f 181/1/4 182/1/4 185/1/4
f 185/1/4 182/1/4 186/1/4
f 183/1/4 184/1/4 189/1/4
f 189/1/4 184/1/4 190/1/4
f 186/1/4 187/1/4 191/1/4
f 191/1/4 187/1/4 192/1/4
f 188/2/4 189/2/4 193/2/4
f 193/2/4 189/2/4 194/2/4
f 195/1/4 196/1/4 198/1/4
f 198/1/4 196/1/4 199/1/4
f 197/1/4 198/1/4 202/1/4
f 202/1/4 198/1/4 203/1/4
f 199/1/4 200/1/4 204/1/4
f 204/1/4 200/1/4 205/1/4
f 201/1/4 202/1/4 207/1/4
f 207/1/4 202/1/4 208/1/4
f 205/1/4 206/1/4 211/1/4
f 211/1/4 206/1/4 212/1/4
f 208/1/4 209/1/4 213/1/4
f 213/1/4 209/1/4 214/1/4
f 210/1/4 211/1/4 215/1/4
f 215/1/4 211/1/4 216/1/4
f 214/1/4 215/1/4 217/1/4
f 217/1/4 215/1/4 218/1/4
f 219/1/4 220/1/4 222/1/4
f 222/1/4 220/1/4 223/1/4
f 221/1/4 222/1/4 225/1/4
f 225/1/4 222/1/4 226/1/4
f 223/1/4 224/1/4 227/1/4
f 227/1/4 224/1/4 228/1/4
f 226/1/4 227/1/4 229/1/4
f 229/1/4 227/1/4 230/1/4
f 231/1/4 232/1/4 233/1/4
f 233/1/4 232/1/4 234/1/4
f 237/2/5 236/2/5 235/2/5
f 238/2/5 236/2/5 237/2/5
f 239/2/5 236/2/5 238/2/5
f 240/2/5 236/2/5 239/2/5
f 241/1/5 238/1/5 237/1/5
f 241/2/5 239/2/5 238/2/5
f 242/1/5 240/1/5 239/1/5
f 242/2/5 239/2/5 241/2/5
f 243/1/5 241/1/5 237/1/5
f 243/1/5 242/1/5 241/1/5
f 244/1/5 242/1/5 243/1/5
f 245/1/5 240/1/5 242/1/5
f 245/1/5 242/1/5 244/1/5
f 246/1/5 240/1/5 245/1/5
f 247/1/5 245/1/5 244/1/5
f 248/1/5 245/1/5 247/1/5
f 252/2/5 250/2/5 249/2/5
f 253/2/5 250/2/5 252/2/5
f 256/2/5 252/2/5 251/2/5
f 256/2/5 254/2/5 253/2/5
f 256/2/5 253/2/5 252/2/5
f 257/2/5 254/2/5 256/2/5
f 259/2/5 256/2/5 255/2/5
f 260/2/5 258/2/5 257/2/5
f 261/2/5 258/2/5 260/2/5
f 262/2/5 258/2/5 261/2/5
f 263/2/5 259/2/5 255/2/5
f 264/2/5 259/2/5 263/2/5
f 267/1/5 262/1/5 261/1/5
f 268/1/5 262/1/5 267/1/5
f 269/1/5 265/1/5 264/1/5
f 270/1/5 265/1/5 269/1/5
f 271/1/5 267/1/5 266/1/5
f 272/1/5 267/1/5 271/1/5
f 273/1/5 271/1/5 270/1/5
f 274/1/5 271/1/5 273/1/5
f 279/2/5 276/2/5 275/2/5
f 280/2/5 276/2/5 279/2/5
f 281/2/5 278/2/5 277/2/5
f 282/2/5 278/2/5 281/2/5
f 287/1/5 284/1/5 283/1/5
f 288/1/5 284/1/5 287/1/5
f 291/1/5 286/1/5 285/1/5
f 292/1/5 286/1/5 291/1/5
f 293/1/5 289/1/5 288/1/5
f 294/1/5 289/1/5 293/1/5
f 295/1/5 291/1/5 290/1/5
f 296/1/5 291/1/5 295/1/5
f 297/1/5 295/1/5 294/1/5
f 298/1/5 295/1/5 297/1/5
f 299/2/6 300/2/6 303/2/6
f 303/2/6 300/2/6 304/2/6
f 301/2/6 302/2/6 305/2/6
f 305/2/6 302/2/6 306/2/6
f 307/1/6 308/1/6 311/1/6
f 311/1/6 308/1/6 312/1/6
f 309/1/6 310/1/6 315/1/6
f 315/1/6 310/1/6 316/1/6
f 312/1/6 313/1/6 317/1/6
f 317/1/6 313/1/6 318/1/6
f 314/1/6 315/1/6 319/1/6
f 319/1/6 315/1/6 320/1/6
f 318/1/6 319/1/6 321/1/6
f 321/1/6 319/1/6 322/1/6
f 323/2/6 324/2/6 326/2/6
f 326/2/6 324/2/6 327/2/6
f 325/2/6 326/2/6 330/2/6
f 327/2/6 328/2/6 330/2/6
f 326/2/6 327/2/6 330/2/6
f 330/2/6 328/2/6 331/2/6
f 329/2/6 330/2/6 333/2/6
f 331/2/6 332/2/6 334/2/6
f 329/2/6 333/2/6 335/2/6
f 335/2/6 333/2/6 336/2/6
f 335/1/6 336/1/6 337/1/6
f 337/1/6 336/1/6 338/1/6
f 334/2/6 332/2/6 341/2/6
f 341/2/6 332/2/6 342/2/6
f 338/1/6 339/1/6 343/1/6
f 343/1/6 339/1/6 344/1/6
f 340/1/6 341/1/6 345/1/6
f 345/1/6 341/1/6 346/1/6
f 344/1/6 345/1/6 347/1/6
f 347/1/6 345/1/6 348/1/6
f 349/2/6 350/2/6 351/2/6
f 351/2/6 350/2/6 352/2/6
f 352/2/6 350/2/6 353/2/6
f 353/2/6 350/2/6 354/2/6
f 351/1/6 352/1/6 355/1/6
f 352/2/6 353/2/6 355/2/6
f 353/1/6 354/1/6 356/1/6
f 355/2/6 353/2/6 356/2/6
f 351/1/6 355/1/6 357/1/6
f 355/1/6 356/1/6 357/1/6
f 357/1/6 356/1/6 358/1/6
f 356/1/6 354/1/6 359/1/6
f 358/1/6 356/1/6 359/1/6
f 359/1/6 354/1/6 360/1/6
f 358/1/6 359/1/6 361/1/6
f 361/1/6 359/1/6 362/1/6
